# xmcd CD database file
#
# Track frame offsets:
#	150
#	12911
#	22729
#	34976
#	51085
#	59845
#	72942
#	102146
#	112423
#	128881
#	143603
#	162696
#	180388
#	196644
#	209166
#	222484
#	241320
#	253325
#	266348
#	285477
#	304826
#
# Disc length: 4218 seconds
#
# Revision: 3
# Processed by: cddbd v1.5.2PL0 Copyright (c) Steve Scherf et al.
# Submitted via: CDex 1.51
#
DISCID=42107815
DTITLE=Ray Charles - Ray Charles 1
DYEAR=2007
DGENRE=Jazz
TTITLE0=Shake a Tail Feather
TTITLE1=Don't tell me your troubles
TTITLE2=Mess around
TTITLE3=Sweet Memories
TTITLE4=Hit the road Jack
TTITLE5=Uncha in my heart
TTITLE6=What I'd say
TTITLE7=Hey good looking
TTITLE8=Georgia on my mind
TTITLE9=You don't know me
TTITLE10=Baby, it's cold outside
TTITLE11=Seven Spanish Angels
TTITLE12=God Bless America
TTITLE13=Yesterday
TTITLE14=When a man loves a woman
TTITLE15=Somewhere over the rainbow
TTITLE16=In the heat of the night
TTITLE17=I've got a woman
TTITLE18=Can't stop loving you
TTITLE19=Sweet Georgia Brown
TTITLE20=This little girl of mine
EXTD=YEAR: 2007
EXTT0=
EXTT1=
EXTT2=
EXTT3=
EXTT4=
EXTT5=
EXTT6=
EXTT7=
EXTT8=
EXTT9=
EXTT10=
EXTT11=
EXTT12=
EXTT13=
EXTT14=
EXTT15=
EXTT16=
EXTT17=
EXTT18=
EXTT19=
EXTT20=
PLAYORDER=
